<svg xmlns="http://www.w3.org/2000/svg" xmlns:xlink="http://www.w3.org/1999/xlink" version="1.1" width="256" height="256" viewBox="0 0 256 256" xml:space="preserve">
<g style="stroke: none; stroke-width: 0; stroke-dasharray: none; stroke-linecap: butt; stroke-linejoin: miter; stroke-miterlimit: 10; fill: none; fill-rule: nonzero; opacity: 1;" transform="translate(1.4065934065934016 1.4065934065934016) scale(2.81 2.81)">
	<path d="M 88.303 40.995 l 0.001 -0.003 L 49.006 1.699 c -2.261 -2.263 -5.931 -2.263 -8.195 0 l -2.326 2.326 l -13.68 13.68 v 0 L 1.698 40.81 c -2.264 2.265 -2.264 5.935 0 8.198 l 39.295 39.293 c 2.262 2.263 5.931 2.263 8.197 0 l 39.113 -39.107 C 90.566 46.93 90.566 43.258 88.303 40.995 z M 82.117 48.595 l -33.526 33.52 c -1.942 1.94 -5.087 1.94 -7.026 0 L 7.884 48.436 c -1.94 -1.94 -1.94 -5.086 0 -7.027 l 23.094 -23.093 l 8.746 8.747 c -0.897 2.148 -0.476 4.715 1.273 6.462 c 0.571 0.574 1.231 1.002 1.936 1.29 v 21.18 c -0.705 0.289 -1.365 0.72 -1.935 1.29 c -2.309 2.309 -2.309 6.049 0 8.361 c 2.307 2.308 6.05 2.308 8.359 0 c 2.309 -2.312 2.309 -6.053 0 -8.361 c -0.469 -0.467 -1 -0.839 -1.564 -1.118 l 0.001 -20.985 l 7.974 7.974 c -0.879 2.14 -0.45 4.691 1.286 6.429 c 2.311 2.31 6.052 2.31 8.362 0 c 2.309 -2.309 2.309 -6.05 0 -8.359 c -1.652 -1.655 -4.039 -2.115 -6.107 -1.402 l -8.551 -8.551 c 0.714 -2.069 0.25 -4.453 -1.401 -6.107 c -1.643 -1.644 -4.007 -2.11 -6.07 -1.414 l -8.872 -8.872 l 6.994 -6.995 c 1.941 -1.94 5.086 -1.94 7.024 0 l 33.683 33.679 l 0 0.003 C 84.056 43.507 84.056 46.654 82.117 48.595 z" style="stroke: none; stroke-width: 1; stroke-dasharray: none; stroke-linecap: butt; stroke-linejoin: miter; stroke-miterlimit: 10; fill: rgb(0,0,0); fill-rule: nonzero; opacity: 1;" transform=" matrix(1 0 0 1 0 0) " stroke-linecap="round"/>
</g>
</svg>