<svg xmlns="http://www.w3.org/2000/svg" xmlns:xlink="http://www.w3.org/1999/xlink" version="1.1" width="256" height="256" viewBox="0 0 256 256" xml:space="preserve">
<g style="stroke: none; stroke-width: 0; stroke-dasharray: none; stroke-linecap: butt; stroke-linejoin: miter; stroke-miterlimit: 10; fill: none; fill-rule: nonzero; opacity: 1;" transform="translate(1.4065934065934016 1.4065934065934016) scale(2.81 2.81)">
	<path d="M 84.472 12.063 c -3.41 -1.704 -7.422 -1.342 -10.473 0.946 L 68 17.508 l -23 17.25 l -25 -18.75 v 0 l -4 -3 c -3.054 -2.288 -7.068 -2.651 -10.477 -0.944 C 2.116 13.769 0 17.196 0 21.008 v 6 v 2.5 v 42.5 c 0 3.859 3.14 7 7 7 h 15 v -33 v 0 l 23 17.25 l 23 -17.25 v 0 v 33 h 15 c 3.859 0 7 -3.141 7 -7 v -42.5 v -2.5 v -6 C 90 17.195 87.882 13.768 84.472 12.063 z M 2 21.008 c 0 -3.097 1.651 -5.772 4.418 -7.156 c 2.769 -1.385 5.902 -1.102 8.382 0.756 l 5.2 3.9 v 23.5 l -18 -13.5 V 21.008 z M 20 77.009 H 7 c -2.757 0 -5 -2.243 -5 -5 v -41 l 18 13.5 V 77.009 z M 45 60.759 l -23 -17.25 v -23.5 l 23 17.25 l 23 -17.25 v 23.5 L 45 60.759 z M 88 72.009 c 0 2.757 -2.243 5 -5 5 H 70 v -32.5 l 18 -13.5 V 72.009 z M 70 42.008 v -23.5 l 5.199 -3.9 H 75.2 c 2.475 -1.857 5.607 -2.141 8.377 -0.756 S 88 17.912 88 21.008 v 7.5 L 70 42.008 z" style="stroke: none; stroke-width: 1; stroke-dasharray: none; stroke-linecap: butt; stroke-linejoin: miter; stroke-miterlimit: 10; fill: rgb(0,0,0); fill-rule: nonzero; opacity: 1;" transform=" matrix(1 0 0 1 0 0) " stroke-linecap="round"/>
</g>
</svg>